# xmcd
#
# Track frame offsets: 
#        150
#        13103
#        27073
#        39908
#        52365
#        66509
#        81376
#        95240
#        107660
#        124562
#        141202
#        156743
#        170887
#
# Disc length: 2469 seconds
#
# Revision: 0
# Processed by: cddbd v1.5.2PL0 Copyright (c) Steve Scherf et al.
# Submitted via: ExactAudioCopy v0.95b3
#
DISCID=c109a30d
DTITLE=Lonesome River Band - The Road With No End
DYEAR=2006
DGENRE=Bluegrass
TTITLE0=Lonesome Won't Get the Best of Me
TTITLE1=It Won't Be Over You
TTITLE2=What I'd Give to Be the Wind
TTITLE3=You Can't Break My Heart
TTITLE4=Whoop and Ride
TTITLE5=Hereafter
TTITLE6=Brother to the Blues
TTITLE7=A Step Away
TTITLE8=New Love
TTITLE9=She's No Lady
TTITLE10=Prisoner's Lament
TTITLE11=Stranger in Your Eyes
TTITLE12=Hillbilly Catfight
EXTD=
EXTT0=
EXTT1=
EXTT2=
EXTT3=
EXTT4=
EXTT5=
EXTT6=
EXTT7=
EXTT8=
EXTT9=
EXTT10=
EXTT11=
EXTT12=
PLAYORDER=
